<svg xmlns="http://www.w3.org/2000/svg" viewBox="0 0 54.14 100">
    <defs>
        <style>.cls-1{fill:#d90219;}.cls-2{fill:#fff;}</style>
    </defs>
    <g id="Слой_2" data-name="Слой 2">
        <g id="Layer_1" data-name="Layer 1">
            <path class="cls-1"
                  d="M35.11,85a53.64,53.64,0,0,0-2-14.3L28.26,53a.94.94,0,0,0-1.65,0l-4.9,17.71a53.65,53.65,0,0,0-2,14.3v13.5a32.18,32.18,0,0,0,15.36,0Z"/>
            <path class="cls-2"
                  d="M27.43,100a28.2,28.2,0,0,1-7.84-1,.54.54,0,0,1-.38-.52V85a54,54,0,0,1,2-14.45l4.89-17.7a1.47,1.47,0,0,1,2.71,0l4.89,17.7a54,54,0,0,1,2,14.45v13.5a.54.54,0,0,1-.38.52A28.27,28.27,0,0,1,27.43,100ZM20.3,98.11a32.72,32.72,0,0,0,14.27,0V85a53,53,0,0,0-1.94-14.16l-4.9-17.7a.41.41,0,0,0-.3-.09.39.39,0,0,0-.3.1L22.24,70.86A53,53,0,0,0,20.3,85Z"/>
            <polygon class="cls-1" points="51.03 81.67 51.03 88.45 3.84 88.45 3.84 81.67 27.43 75.85 51.03 81.67"/>
            <path class="cls-2"
                  d="M51,89H3.84a.55.55,0,0,1-.55-.54V81.67a.54.54,0,0,1,.42-.53L27.3,75.32a.57.57,0,0,1,.26,0l23.6,5.82a.55.55,0,0,1,.42.53v6.78A.55.55,0,0,1,51,89ZM4.38,87.9h46.1V82.09l-23-5.67-23,5.67Z"/>
            <path class="cls-1"
                  d="M38.32,63.77a141.3,141.3,0,0,0-2.77-27.83L28.61,1.51a1.21,1.21,0,0,0-1.18-1,1.19,1.19,0,0,0-1.17,1L19.32,35.94a141.3,141.3,0,0,0-2.77,27.83V90c5.65,2.41,16.11,2.41,21.77,0Z"/>
            <path class="cls-2"
                  d="M27.43,92.39a29.92,29.92,0,0,1-11.1-1.86A.55.55,0,0,1,16,90V63.77a141.56,141.56,0,0,1,2.79-27.93L25.73,1.4a1.74,1.74,0,0,1,3.41,0l6.94,34.43a141.74,141.74,0,0,1,2.79,27.94V90a.55.55,0,0,1-.33.5A29.94,29.94,0,0,1,27.43,92.39ZM17.09,89.66c5.45,2.16,15.24,2.16,20.69,0V63.77A140.2,140.2,0,0,0,35,36.05L28.07,1.61a.65.65,0,0,0-1.27,0L19.86,36.05a140.27,140.27,0,0,0-2.77,27.72Z"/>
            <path class="cls-2" d="M32,19.11H22.82a.55.55,0,0,1,0-1.09H32a.55.55,0,1,1,0,1.09Z"/>
            <path class="cls-2"
                  d="M27.43,56.92a7.71,7.71,0,1,1,7.71-7.7A7.71,7.71,0,0,1,27.43,56.92Zm0-14.31a6.61,6.61,0,1,0,6.62,6.61A6.62,6.62,0,0,0,27.43,42.61Z"/>
            <path class="cls-2"
                  d="M27.43,53.82A4.6,4.6,0,1,1,32,49.22,4.61,4.61,0,0,1,27.43,53.82Zm0-8.11A3.51,3.51,0,1,0,31,49.22,3.51,3.51,0,0,0,27.43,45.71Z"/>
            <path class="cls-1" d="M29.88,95H25V78.9c.74-7.17,4.17-7.17,4.9,0Z"/>
            <path class="cls-2"
                  d="M29.88,95.52H25a.55.55,0,0,1-.54-.55V78.9c.38-3.73,1.5-5.93,3-5.93s2.62,2.2,3,5.87V95A.55.55,0,0,1,29.88,95.52Zm-4.35-1.1h3.81V78.9C29,75.39,28,74.07,27.43,74.07s-1.54,1.32-1.9,4.88Z"/>
            <path class="cls-1" d="M53.59,95h-4.9V78.9c.74-7.17,4.17-7.17,4.9,0Z"/>
            <path class="cls-2"
                  d="M53.59,95.52h-4.9a.55.55,0,0,1-.54-.55V78.9c.38-3.73,1.49-5.93,3-5.93h0c1.5,0,2.62,2.2,3,5.87V95A.55.55,0,0,1,53.59,95.52Zm-4.35-1.1H53V78.9c-.36-3.51-1.35-4.83-1.9-4.83S49.6,75.39,49.24,79Z"/>
            <path class="cls-1" d="M5.45,95H.55V78.9c.73-7.17,4.16-7.17,4.9,0Z"/>
            <path class="cls-2"
                  d="M5.44,95.52H.55A.55.55,0,0,1,0,95V78.9C.38,75.17,1.5,73,3,73H3c1.49,0,2.61,2.2,3,5.87V95A.55.55,0,0,1,5.44,95.52Zm-4.35-1.1H4.9V78.9c-.36-3.51-1.36-4.83-1.9-4.83S1.45,75.39,1.09,79Z"/>
        </g>
    </g>
</svg>