<svg xmlns="http://www.w3.org/2000/svg" viewBox="0 0 88.83 70.03"><defs><style>.cls-1{fill:#d90219;}.cls-2{fill:#fff;}</style></defs><g id="Слой_2" data-name="Слой 2"><g id="Layer_1" data-name="Layer 1"><polygon class="cls-1" points="87.94 0.89 87.94 25.52 21.2 25.52 16.58 34.32 16.58 0.89 87.94 0.89"/><path class="cls-2" d="M16.58,35.21a.76.76,0,0,1-.21,0,.89.89,0,0,1-.68-.86V.89A.89.89,0,0,1,16.58,0H87.94a.89.89,0,0,1,.89.89V25.52a.89.89,0,0,1-.89.9H21.73l-4.36,8.31A.9.9,0,0,1,16.58,35.21Zm.89-33.43V30.7l2.94-5.59a.89.89,0,0,1,.79-.48H87.05V1.78Z"/><rect class="cls-1" x="10.8" y="55.42" width="8.38" height="6.6"/><path class="cls-2" d="M19.19,62.91H10.8A.89.89,0,0,1,9.91,62v-6.6a.89.89,0,0,1,.89-.9h8.39a.89.89,0,0,1,.89.9V62A.89.89,0,0,1,19.19,62.91Zm-7.5-1.78H18.3V56.31H11.69Z"/><polygon class="cls-1" points="15.93 69.14 10.87 69.14 8.33 53.76 13.4 53.76 15.93 69.14"/><path class="cls-2" d="M15.93,70H10.87a.89.89,0,0,1-.88-.75L7.46,53.9a.87.87,0,0,1,.2-.72.85.85,0,0,1,.67-.31H13.4a.88.88,0,0,1,.88.74L16.81,69a.9.9,0,0,1-.88,1Zm-4.3-1.78h3.25l-2.23-13.6H9.38Z"/><path class="cls-1" d="M19.73,55.67H2C.53,54.73.53,49,2,48.08H19.73Z"/><path class="cls-2" d="M19.73,56.56H2a.88.88,0,0,1-.49-.15C.14,55.54,0,53,0,51.88s.14-3.66,1.47-4.54A.88.88,0,0,1,2,47.19H19.73a.89.89,0,0,1,.89.89v7.59A.89.89,0,0,1,19.73,56.56ZM2.32,54.78H18.84V49H2.33a6.06,6.06,0,0,0-.55,2.9A6.16,6.16,0,0,0,2.32,54.78Z"/><path class="cls-1" d="M45,54.65,30.8,58.84V44.92L45,49.13C47.16,49.92,47.16,53.86,45,54.65Z"/><path class="cls-2" d="M30.8,59.73a.9.9,0,0,1-.89-.89V44.92a.88.88,0,0,1,.36-.71.9.9,0,0,1,.79-.14l14.2,4.21a4,4,0,0,1,.06,7.2l-.06,0-14.2,4.19A.78.78,0,0,1,30.8,59.73Zm.89-13.61V57.65l13-3.85a2.31,2.31,0,0,0,0-3.83Z"/><path class="cls-1" d="M38.72,36.65V67.12L28.16,61.35a28,28,0,0,0-13.47-3.44H6.29c-1.71-1.57-1.71-10.51,0-12.08h8.42a28.2,28.2,0,0,0,13.44-3.42Z"/><path class="cls-2" d="M38.72,68a.91.91,0,0,1-.42-.11L27.73,62.13a27.25,27.25,0,0,0-13-3.33H6.29a.91.91,0,0,1-.61-.23c-1.45-1.34-1.56-5.47-1.56-6.7s.11-5.35,1.56-6.7a.91.91,0,0,1,.61-.23h8.42a27.37,27.37,0,0,0,13-3.31L38.3,35.87a.88.88,0,0,1,1.31.78V67.12a.88.88,0,0,1-.43.76A.84.84,0,0,1,38.72,68Zm-32-11h8a29,29,0,0,1,13.89,3.55l9.25,5.05V38.15l-9.26,5a29,29,0,0,1-13.86,3.53h-8a12.33,12.33,0,0,0-.81,5.15A12.29,12.29,0,0,0,6.71,57Z"/><path class="cls-1" d="M34,39.9v0Z"/><path class="cls-2" d="M34,64.75a.89.89,0,0,1-.89-.89v-24a.89.89,0,0,1,1.78,0v24A.89.89,0,0,1,34,64.75Z"/><rect class="cls-1" x="21.94" y="7.52" width="5.1" height="10.97"/><path class="cls-2" d="M27,19.38h-5.1a.89.89,0,0,1-.89-.89v-11a.89.89,0,0,1,.89-.89H27a.89.89,0,0,1,.9.89v11A.89.89,0,0,1,27,19.38ZM22.83,17.6h3.32V8.41H22.83Z"/><rect class="cls-1" x="30.82" y="7.52" width="5.1" height="10.97"/><path class="cls-2" d="M35.92,19.38h-5.1a.89.89,0,0,1-.89-.89v-11a.89.89,0,0,1,.89-.89h5.1a.89.89,0,0,1,.89.89v11A.89.89,0,0,1,35.92,19.38ZM31.71,17.6H35V8.41H31.71Z"/><rect class="cls-1" x="44.69" y="7.52" width="5.1" height="10.97"/><path class="cls-2" d="M49.79,19.38h-5.1a.89.89,0,0,1-.89-.89v-11a.89.89,0,0,1,.89-.89h5.1a.89.89,0,0,1,.89.89v11A.89.89,0,0,1,49.79,19.38ZM45.58,17.6H48.9V8.41H45.58Z"/><rect class="cls-1" x="53.56" y="7.52" width="5.1" height="10.97"/><path class="cls-2" d="M58.66,19.38h-5.1a.89.89,0,0,1-.89-.89v-11a.89.89,0,0,1,.89-.89h5.1a.89.89,0,0,1,.89.89v11A.89.89,0,0,1,58.66,19.38ZM54.45,17.6h3.32V8.41H54.45Z"/><rect class="cls-1" x="67.43" y="7.52" width="5.1" height="10.97"/><path class="cls-2" d="M72.53,19.38h-5.1a.89.89,0,0,1-.89-.89v-11a.89.89,0,0,1,.89-.89h5.1a.89.89,0,0,1,.89.89v11A.89.89,0,0,1,72.53,19.38ZM68.32,17.6h3.32V8.41H68.32Z"/><path class="cls-1" d="M40.42,10v0Z"/><path class="cls-2" d="M40.42,11.5a.89.89,0,0,1-.89-.89V10a.89.89,0,0,1,1.78,0v.62A.89.89,0,0,1,40.42,11.5Z"/><path class="cls-1" d="M40.42,15.54v0Z"/><path class="cls-2" d="M40.42,17.06a.89.89,0,0,1-.89-.89v-.63a.89.89,0,0,1,1.78,0v.63A.89.89,0,0,1,40.42,17.06Z"/><path class="cls-1" d="M63.21,10v0Z"/><path class="cls-2" d="M63.21,11.5a.89.89,0,0,1-.89-.89V10a.89.89,0,0,1,1.78,0v.62A.89.89,0,0,1,63.21,11.5Z"/><path class="cls-1" d="M63.21,15.54v0Z"/><path class="cls-2" d="M63.21,17.06a.89.89,0,0,1-.89-.89v-.63a.89.89,0,1,1,1.78,0v.63A.89.89,0,0,1,63.21,17.06Z"/><polygon class="cls-1" points="81.41 13 76.3 13 76.3 7.52 81.41 7.52 81.41 18.49 76.3 18.49 81.41 13"/><path class="cls-2" d="M81.41,13.89H76.3a.89.89,0,0,1-.89-.89V7.52a.89.89,0,0,1,.89-.89h5.11a.89.89,0,0,1,.89.89v11a.89.89,0,0,1-.89.89H76.3a.89.89,0,1,1,0-1.78h5.11l-.9.89v-11l.9.89H76.3l.89-.89V13l-.89-.89h5.11a.89.89,0,0,1,0,1.78Z"/></g></g></svg>