<svg xmlns="http://www.w3.org/2000/svg" viewBox="0 0 82.5 48.37"><defs><style>.cls-1{fill:#d90219;}.cls-2{fill:#fff;}</style></defs><g id="Слой_2" data-name="Слой 2"><g id="Layer_1" data-name="Layer 1"><rect class="cls-1" x="17.56" y="0.64" width="47.39" height="33.24"/><path class="cls-2" d="M64.94,34.51H17.56a.63.63,0,0,1-.64-.64V.64A.64.64,0,0,1,17.56,0H64.94a.64.64,0,0,1,.64.64V33.87A.64.64,0,0,1,64.94,34.51ZM18.19,33.24H64.3v-32H18.19Z"/><polygon class="cls-1" points="64.94 33.88 17.56 33.88 0.64 43.86 81.86 43.86 64.94 33.88"/><path class="cls-2" d="M81.86,44.49H.64A.64.64,0,0,1,0,44a.65.65,0,0,1,.29-.71l16.92-10a.63.63,0,0,1,.33-.09H64.94a.63.63,0,0,1,.33.09l16.92,10a.63.63,0,0,1-.33,1.18ZM3,43.22H79.53L64.77,34.51h-47Z"/><path class="cls-1" d="M81.86,43.86c0,1.25-1,3.88-2.27,3.88H2.91c-1.26,0-2.27-2.63-2.27-3.88Z"/><path class="cls-2" d="M79.59,48.37H2.91C1.1,48.37,0,45.24,0,43.86a.64.64,0,0,1,.64-.64H81.86a.64.64,0,0,1,.64.64C82.5,45.24,81.4,48.37,79.59,48.37ZM1.35,44.49c.24,1.15,1,2.61,1.56,2.61H79.59c.56,0,1.32-1.46,1.56-2.61Z"/><path class="cls-1" d="M17.56,4.08h0Z"/><path class="cls-2" d="M64.94,4.71H17.56a.63.63,0,0,1-.64-.63.64.64,0,0,1,.64-.64H64.94a.64.64,0,0,1,.64.64A.64.64,0,0,1,64.94,4.71Z"/><rect class="cls-1" x="20.98" y="7.37" width="3.67" height="3.67"/><path class="cls-2" d="M24.65,11.68H21a.64.64,0,0,1-.63-.64V7.37A.64.64,0,0,1,21,6.73h3.67a.64.64,0,0,1,.64.64V11A.64.64,0,0,1,24.65,11.68Zm-3-1.28H24V8H21.62Z"/><rect class="cls-1" x="27.95" y="7.37" width="3.67" height="3.67"/><path class="cls-2" d="M31.62,11.68H28a.64.64,0,0,1-.63-.64V7.37A.64.64,0,0,1,28,6.73h3.67a.64.64,0,0,1,.64.64V11A.64.64,0,0,1,31.62,11.68Zm-3-1.28H31V8h-2.4Z"/><rect class="cls-1" x="20.98" y="14.07" width="3.67" height="3.67"/><path class="cls-2" d="M24.65,18.37H21a.63.63,0,0,1-.63-.64V14.07a.63.63,0,0,1,.63-.64h3.67a.64.64,0,0,1,.64.64v3.66A.64.64,0,0,1,24.65,18.37Zm-3-1.27H24V14.7H21.62Z"/><rect class="cls-1" x="34.93" y="7.37" width="3.67" height="3.67"/><path class="cls-2" d="M38.6,11.68H34.93a.64.64,0,0,1-.64-.64V7.37a.64.64,0,0,1,.64-.64H38.6a.64.64,0,0,1,.63.64V11A.64.64,0,0,1,38.6,11.68Zm-3-1.28H38V8h-2.4Z"/><rect class="cls-1" x="41.9" y="7.37" width="3.67" height="3.67"/><path class="cls-2" d="M45.57,11.68H41.9a.64.64,0,0,1-.64-.64V7.37a.64.64,0,0,1,.64-.64h3.67a.64.64,0,0,1,.64.64V11A.64.64,0,0,1,45.57,11.68Zm-3-1.28h2.39V8H42.54Z"/><path class="cls-1" d="M29.05,15.77h0Z"/><path class="cls-2" d="M38.93,16.41H29.05a.64.64,0,0,1,0-1.28h9.88a.64.64,0,1,1,0,1.28Z"/><path class="cls-1" d="M29.05,19.34h0Z"/><path class="cls-2" d="M38.93,20H29.05a.64.64,0,0,1,0-1.27h9.88a.64.64,0,1,1,0,1.27Z"/><path class="cls-1" d="M29.05,22.92h0Z"/><path class="cls-2" d="M33.65,23.56h-4.6a.64.64,0,0,1,0-1.28h4.6a.64.64,0,0,1,0,1.28Z"/><rect class="cls-1" x="48.61" y="7.28" width="13.55" height="15.63"/><path class="cls-2" d="M62.17,23.56H48.61a.64.64,0,0,1-.63-.64V7.29a.63.63,0,0,1,.63-.64H62.17a.63.63,0,0,1,.63.64V22.92A.64.64,0,0,1,62.17,23.56ZM49.25,22.28H61.53V7.92H49.25Z"/><rect class="cls-1" x="51.39" y="10.08" width="8.24" height="4.86"/><path class="cls-2" d="M59.62,15.58H51.39a.64.64,0,0,1-.64-.64V10.08a.64.64,0,0,1,.64-.64h8.23a.64.64,0,0,1,.64.64v4.86A.64.64,0,0,1,59.62,15.58ZM52,14.3h7V10.72H52Z"/><path class="cls-1" d="M51.39,18.16h0Z"/><path class="cls-2" d="M59.62,18.79H51.39a.64.64,0,1,1,0-1.27h8.23a.64.64,0,1,1,0,1.27Z"/></g></g></svg>