<svg xmlns="http://www.w3.org/2000/svg" viewBox="0 0 65.97 67.26"><defs><style>.cls-1{fill:#d90219;}.cls-2{fill:#fff;}</style></defs><g id="Слой_2" data-name="Слой 2"><g id="Layer_1" data-name="Layer 1"><path class="cls-1" d="M30.25,58.22h.91v8.27H23.3V65.17c0-6.91-7.84-6.91-7.81,0v1.32H7.63V58.22H5.9c-6.93,0-6.93-7.81,0-7.81H7.63V42.18h7.86v1.28c0,6.9,7.81,6.9,7.81,0V42.18h7.86v8.23h-.91C23.32,50.41,23.32,58.22,30.25,58.22Z"/><path class="cls-2" d="M31.16,67.19H23.3a.7.7,0,0,1-.7-.7V65.17c0-1.93-.68-3.43-1.87-4.11a2.67,2.67,0,0,0-2.69,0c-1.18.69-1.86,2.18-1.85,4.11v1.32a.7.7,0,0,1-.7.7H7.63a.7.7,0,0,1-.71-.7V58.93h-1C2,58.93,0,56.61,0,54.31S2,49.7,5.9,49.7h1V42.18a.7.7,0,0,1,.71-.7h7.86a.7.7,0,0,1,.7.7v1.28c0,1.92.67,3.42,1.85,4.1a2.67,2.67,0,0,0,2.69,0c1.19-.69,1.87-2.18,1.87-4.11V42.18a.7.7,0,0,1,.7-.7h7.86a.7.7,0,0,1,.7.7v8.23a.7.7,0,0,1-.7.7h-.91a5.26,5.26,0,0,0-3.44,1.06,2.78,2.78,0,0,0-1,2.14c0,1.55,1.4,3.21,4.49,3.21h.91a.7.7,0,0,1,.7.7v8.27A.7.7,0,0,1,31.16,67.19ZM24,65.79h6.46V58.93h-.21c-3.87,0-5.9-2.32-5.9-4.62a4.18,4.18,0,0,1,1.55-3.22,6.61,6.61,0,0,1,4.35-1.39h.21V42.89H24v.57c0,2.44-.93,4.39-2.57,5.33a4,4,0,0,1-4.1,0c-1.63-.94-2.56-2.88-2.55-5.33v-.56H8.33v7.52a.7.7,0,0,1-.7.7H5.9a5.24,5.24,0,0,0-3.44,1.06,2.78,2.78,0,0,0-1,2.14c0,1.55,1.4,3.21,4.49,3.21H7.63a.7.7,0,0,1,.7.7v7.57h6.45v-.62c0-2.44.92-4.38,2.55-5.32a4,4,0,0,1,4.1,0c1.64.94,2.57,2.89,2.57,5.33Z"/><path class="cls-1" d="M53.87,58.28h.89v8.27H46.92V65.23c0-6.93-7.83-6.93-7.83,0v1.32H31.25V58.28H29.5c-6.93,0-6.93-7.83,0-7.83h1.75V42.22h7.84V40.86c0-6.93,7.83-6.93,7.83,0v1.36h7.84v8.23h-.89C46.94,50.45,46.94,58.28,53.87,58.28Z"/><path class="cls-2" d="M54.76,67.26H46.92a.7.7,0,0,1-.7-.71V65.23c0-3.08-1.67-4.49-3.22-4.49s-3.21,1.41-3.21,4.49v1.32a.71.71,0,0,1-.7.71H31.25a.7.7,0,0,1-.7-.71V59H29.5c-3.87,0-5.9-2.33-5.9-4.62s2-4.63,5.9-4.63h1.05V42.22a.7.7,0,0,1,.7-.7h7.13v-.66C38.38,37,40.71,35,43,35s4.63,2,4.63,5.9v.66h7.13a.7.7,0,0,1,.7.7v8.23a.7.7,0,0,1-.7.7h-.89a5.27,5.27,0,0,0-3.44,1.06,2.8,2.8,0,0,0-1,2.16c0,1.54,1.41,3.21,4.49,3.21h.89a.7.7,0,0,1,.7.7v8.27A.7.7,0,0,1,54.76,67.26Zm-7.13-1.41h6.42V59h-.18C50,59,48,56.66,48,54.37a4.22,4.22,0,0,1,1.55-3.24,6.61,6.61,0,0,1,4.35-1.39h.18V42.93H46.92a.7.7,0,0,1-.7-.71V40.86c0-3.09-1.67-4.49-3.22-4.49s-3.21,1.4-3.21,4.49v1.36a.71.71,0,0,1-.7.71H32v7.52a.7.7,0,0,1-.7.7H29.5a5.24,5.24,0,0,0-3.44,1.06,2.8,2.8,0,0,0-1,2.16c0,1.54,1.4,3.21,4.49,3.21h1.75a.7.7,0,0,1,.7.7v7.57h6.43v-.62c0-3.87,2.33-5.9,4.62-5.9s4.63,2,4.63,5.9Z"/><path class="cls-1" d="M30.25,33.81h.91v8.27H23.3V43.4c0,6.93-7.81,6.93-7.81,0V42.08H7.63V17.77h7.86v1.28c0,6.91,7.81,6.91,7.81,0V17.77h7.86V26h-.91C23.34,26,23.34,33.81,30.25,33.81Z"/><path class="cls-2" d="M19.4,49.3a4.06,4.06,0,0,1-2-.55c-1.64-.94-2.58-2.89-2.58-5.35v-.61H7.63a.71.71,0,0,1-.71-.71V17.77a.7.7,0,0,1,.71-.7h7.86a.7.7,0,0,1,.7.7v1.28c0,3.07,1.66,4.47,3.2,4.47s3.21-1.4,3.21-4.47V17.77a.7.7,0,0,1,.7-.7h7.86a.7.7,0,0,1,.7.7V26a.7.7,0,0,1-.7.7h-.91a5.23,5.23,0,0,0-3.43,1.06,2.8,2.8,0,0,0-1,2.15c0,1.54,1.4,3.2,4.47,3.2h.91a.7.7,0,0,1,.7.7v8.27a.7.7,0,0,1-.7.71H24v.61c0,2.45-.92,4.4-2.55,5.34A4.08,4.08,0,0,1,19.4,49.3ZM8.33,41.38h7.16a.7.7,0,0,1,.7.7V43.4c0,1.94.68,3.44,1.87,4.13a2.69,2.69,0,0,0,2.69,0c1.18-.69,1.85-2.19,1.85-4.13V42.08a.7.7,0,0,1,.7-.7h7.16V34.52h-.21c-3.86,0-5.88-2.32-5.88-4.61a4.22,4.22,0,0,1,1.54-3.23,6.59,6.59,0,0,1,4.34-1.39h.21V18.48H24v.57c0,3.86-2.31,5.88-4.61,5.88s-4.61-2-4.61-5.88v-.57H8.33Z"/><path class="cls-1" d="M39.59,26.38,61.78,4.18Z"/><path class="cls-2" d="M39.59,27.08a.71.71,0,0,1-.5-1.2l22.2-22.2a.7.7,0,0,1,1,1L40.09,26.87A.7.7,0,0,1,39.59,27.08Z"/><path class="cls-1" d="M43.07,26.38a3.48,3.48,0,1,1-3.48-3.48A3.47,3.47,0,0,1,43.07,26.38Z"/><path class="cls-2" d="M39.59,30.56a4.18,4.18,0,1,1,4.18-4.18A4.19,4.19,0,0,1,39.59,30.56Zm0-7a2.78,2.78,0,1,0,2.78,2.78A2.79,2.79,0,0,0,39.59,23.6Z"/><path class="cls-1" d="M65.27,4.18A3.49,3.49,0,1,1,61.78.7,3.48,3.48,0,0,1,65.27,4.18Z"/><path class="cls-2" d="M61.78,8.36A4.18,4.18,0,1,1,66,4.18,4.19,4.19,0,0,1,61.78,8.36Zm0-6.95a2.77,2.77,0,1,0,2.78,2.77A2.77,2.77,0,0,0,61.78,1.41Z"/></g></g></svg>