<svg xmlns="http://www.w3.org/2000/svg" viewBox="0 0 87.79 61.88"><defs><style>.cls-1{fill:#d90219;}.cls-2{fill:#fff;}</style></defs><g id="Слой_2" data-name="Слой 2"><g id="Layer_1" data-name="Layer 1"><path class="cls-1" d="M53.75,54.31c3.85,3.85-1.37,9.07-5.22,5.22l-22-22,5.22-5.22Z"/><path class="cls-2" d="M51.48,61.88a5.16,5.16,0,0,1-3.66-1.65l-22-22a1,1,0,0,1,0-1.41L31,31.6a1,1,0,0,1,1.41,0l22,22h0a4.74,4.74,0,0,1,.28,6.92A4.65,4.65,0,0,1,51.48,61.88ZM27.94,37.53,49.23,58.82c1.51,1.52,3.15,1.23,4.09.28S54.55,56.52,53,55L31.75,33.71Z"/><path class="cls-1" d="M3.5,54.31c-3.85,3.85,1.37,9.07,5.22,5.22l22-22L25.5,32.31Z"/><path class="cls-2" d="M5.77,61.88a4.65,4.65,0,0,1-3.25-1.36A4.74,4.74,0,0,1,2.8,53.6h0l22-22a1,1,0,0,1,1.41,0l5.22,5.22a1,1,0,0,1,0,1.41l-22,22A5.16,5.16,0,0,1,5.77,61.88ZM4.21,55C2.7,56.52,3,58.16,3.93,59.1S6.51,60.34,8,58.82L29.31,37.53,25.5,33.72Z"/><polygon class="cls-1" points="86.79 35.03 72.61 35.03 66.52 28.92 72.61 22.84 86.79 22.84 82.67 28.93 86.79 35.03"/><path class="cls-2" d="M86.79,36H72.61a1,1,0,0,1-.71-.29l-6.08-6.12a1,1,0,0,1,0-1.41l6.08-6.08a1,1,0,0,1,.71-.29H86.79a1,1,0,0,1,.88.53,1,1,0,0,1,0,1l-3.74,5.54,3.74,5.55a1,1,0,0,1,0,1A1,1,0,0,1,86.79,36ZM73,34h11.9l-3.07-4.55a1,1,0,0,1,0-1.11l3.07-4.55H73l-5.09,5.09Z"/><circle class="cls-1" cx="28.66" cy="28.66" r="27.67" transform="translate(-4.14 4.85) rotate(-9.03)"/><path class="cls-2" d="M28.66,57.33A28.67,28.67,0,1,1,57.33,28.66,28.7,28.7,0,0,1,28.66,57.33ZM28.66,2A26.67,26.67,0,1,0,55.33,28.66,26.71,26.71,0,0,0,28.66,2Z"/><path class="cls-1" d="M44.86,28.66a16.2,16.2,0,1,1-16.2-16.19A16.2,16.2,0,0,1,44.86,28.66Z"/><path class="cls-2" d="M28.66,45.86a17.2,17.2,0,1,1,17.2-17.2A17.22,17.22,0,0,1,28.66,45.86Zm0-32.4a15.2,15.2,0,1,0,15.2,15.2A15.22,15.22,0,0,0,28.66,13.46Z"/><path class="cls-1" d="M35.58,28.66a6.92,6.92,0,1,1-6.92-6.91A6.92,6.92,0,0,1,35.58,28.66Z"/><path class="cls-2" d="M28.66,36.57a7.91,7.91,0,1,1,7.91-7.91A7.92,7.92,0,0,1,28.66,36.57Zm0-13.82a5.92,5.92,0,1,0,5.92,5.91A5.92,5.92,0,0,0,28.66,22.75Z"/><path class="cls-1" d="M28.54,28.94h0Z"/><path class="cls-2" d="M76.66,29.93H28.54a1,1,0,1,1,0-2H76.66a1,1,0,1,1,0,2Z"/></g></g></svg>