<svg xmlns="http://www.w3.org/2000/svg" viewBox="0 0 60.52 86.9"><defs><style>.cls-1{fill:#d90219;}.cls-2{fill:#fff;}</style></defs><g id="Слой_2" data-name="Слой 2"><g id="Layer_1" data-name="Layer 1"><path class="cls-1" d="M22.17,39.8V60.87c0,9.51,9.92,9.79,11,9.79s11.06-.28,11.06-9.79v-29a7.75,7.75,0,1,1,15.49,0v29c0,16.59-13.35,25.28-26.55,25.28S6.68,77.46,6.68,60.87V39.8Z"/><path class="cls-2" d="M33.23,86.9c-13.57,0-27.3-8.94-27.3-26V39.8a.75.75,0,0,1,.75-.75H22.17a.75.75,0,0,1,.75.75V60.87c0,8.78,9.25,9,10.31,9s10.3-.26,10.3-9v-29a8.5,8.5,0,1,1,17,0v29C60.52,78,46.79,86.9,33.23,86.9ZM7.43,40.55V60.87c0,16.1,13,24.52,25.8,24.52S59,77,59,60.87v-29a7,7,0,1,0-14,0v29c0,10.24-10.6,10.54-11.8,10.54s-11.81-.3-11.81-10.54V40.55Z"/><rect class="cls-1" x="5.52" y="35.69" width="17.63" height="8.64"/><path class="cls-2" d="M23.15,45.08H5.52a.74.74,0,0,1-.75-.75V35.69a.75.75,0,0,1,.75-.75H23.15a.75.75,0,0,1,.75.75v8.64A.74.74,0,0,1,23.15,45.08ZM6.27,43.58H22.4V36.44H6.27Z"/><path class="cls-2" d="M6.68,36.13a.71.71,0,0,1-.4-.11,3,3,0,0,1-1.4-2.53V32.1a.75.75,0,0,1,1.5,0v1.39a1.49,1.49,0,0,0,.7,1.26.75.75,0,0,1-.4,1.38Z"/><path class="cls-2" d="M22.47,36.13a.74.74,0,0,1-.64-.35.75.75,0,0,1,.24-1,1.45,1.45,0,0,0,.68-1.24v-20a1.48,1.48,0,1,0-3,0v6.07a.75.75,0,0,1-1.5,0v-8a1.49,1.49,0,0,0-3,0v7.74a.75.75,0,0,1-1.5,0V11.58a1.49,1.49,0,0,0-3,0V17.7a.75.75,0,1,1-1.5,0V3a1.49,1.49,0,1,0-3,0v22.2a.75.75,0,0,1-1.5,0V3a3,3,0,1,1,6,0V9a3,3,0,0,1,1.47-.39,3,3,0,0,1,2.25,1A3,3,0,0,1,19.72,11a3,3,0,0,1,4.54,2.55v20A3,3,0,0,1,22.86,36,.7.7,0,0,1,22.47,36.13Z"/><path class="cls-2" d="M5.13,32.48a.77.77,0,0,1-.42-.13C4.51,32.22,0,29.11,0,24L.76,16.8c.5-2.81,2-3.67,3.16-3.56s2.46,1.35,2.46,3.52a.75.75,0,0,1-1.5,0c0-1.25-.56-2-1.09-2S2.54,15.38,2.25,17l-.75,7.1c0,4.19,4,7,4.05,7a.76.76,0,0,1-.42,1.38Z"/><path class="cls-1" d="M20,40.18a.85.85,0,1,1-.85-.85A.85.85,0,0,1,20,40.18Z"/><path class="cls-2" d="M19.17,41.78a1.61,1.61,0,1,1,1.61-1.6A1.6,1.6,0,0,1,19.17,41.78Z"/><path class="cls-2" d="M59.77,37.93H54.13a.76.76,0,0,1,0-1.51h5.64a.76.76,0,0,1,0,1.51Z"/><path class="cls-2" d="M59.77,41.82h-9a.75.75,0,1,1,0-1.5h9a.75.75,0,0,1,0,1.5Z"/></g></g></svg>