<svg xmlns="http://www.w3.org/2000/svg" viewBox="0 0 321.82 29.69"><defs><style>.cls-1{fill:#d90219;}</style></defs><g id="Слой_2" data-name="Слой 2"><g id="Layer_1" data-name="Layer 1"><path d="M0,.57H8.08V22.72H21.7v6.4H0Z"/><path d="M47.8,22.88v6.24H24.88V.57H47.27V6.81H32.87v4.81H45.56v6H32.87v5.22Z"/><path d="M80.84.57,68.6,29.12H60.65L48.46.57h8.72l7.75,18.6L72.85.57Z"/><path d="M88.41,27.78a14.31,14.31,0,0,1-7.73-12.93A14.28,14.28,0,0,1,88.41,1.92a18.19,18.19,0,0,1,16.27,0,14.28,14.28,0,0,1,7.73,12.93,14.31,14.31,0,0,1-7.73,12.93,18.28,18.28,0,0,1-16.27,0Zm12-5.8a7.23,7.23,0,0,0,2.77-2.87,8.71,8.71,0,0,0,1-4.26,8.73,8.73,0,0,0-1-4.27,7.36,7.36,0,0,0-2.77-2.87,8,8,0,0,0-7.83,0,7.29,7.29,0,0,0-2.77,2.87,8.73,8.73,0,0,0-1,4.27,8.71,8.71,0,0,0,1,4.26A7.16,7.16,0,0,0,92.63,22a8,8,0,0,0,7.83,0Z"/><path d="M144.63.57,132.4,29.12h-8L112.25.57H121l7.75,18.6L136.64.57Z"/><path class="cls-1" d="M161.4,23.58H149.33l-2.24,5.54h-8.24L151.45.57h8l12.65,28.55h-8.41Zm-2.36-6-3.67-9.14-3.68,9.14Z"/><path class="cls-1" d="M193.05,14.23h7.14V26.06a18.72,18.72,0,0,1-5.63,2.7,22.56,22.56,0,0,1-6.36.93,17.11,17.11,0,0,1-8.08-1.89,14.21,14.21,0,0,1-5.63-5.29,14.53,14.53,0,0,1-2-7.66,14.57,14.57,0,0,1,2-7.67,14,14,0,0,1,5.67-5.28,17.39,17.39,0,0,1,8.2-1.9,18.2,18.2,0,0,1,7.18,1.35,13.78,13.78,0,0,1,5.3,3.87L195.7,9.87a9.05,9.05,0,0,0-6.93-3.18,8,8,0,0,0-5.91,2.22,8,8,0,0,0-2.25,5.94,8.64,8.64,0,0,0,1,4.22A7.23,7.23,0,0,0,184.49,22a8.28,8.28,0,0,0,4.2,1,10.38,10.38,0,0,0,4.36-.93Z"/><path class="cls-1" d="M228.25,22.88v6.24H205.33V.57h22.39V6.81h-14.4v4.81H226v6H213.32v5.22Z"/><path class="cls-1" d="M259.9.57V29.12h-6.64L240.65,13.91V29.12h-7.91V.57h6.65L252,15.79V.57Z"/><path class="cls-1" d="M271.79,27.8a14.13,14.13,0,0,1-5.6-5.29,14.44,14.44,0,0,1-2-7.66,14.48,14.48,0,0,1,2-7.67,14,14,0,0,1,5.6-5.28A16.86,16.86,0,0,1,279.85,0a17.24,17.24,0,0,1,7.06,1.39,13.57,13.57,0,0,1,5.22,4L287,10a8.46,8.46,0,0,0-6.73-3.34,8.3,8.3,0,0,0-4.14,1,7.15,7.15,0,0,0-2.82,2.87,8.94,8.94,0,0,0-1,4.27,8.93,8.93,0,0,0,1,4.26A7,7,0,0,0,276.12,22a8.3,8.3,0,0,0,4.14,1A8.46,8.46,0,0,0,287,19.66l5.14,4.65a13.69,13.69,0,0,1-5.22,4,17.4,17.4,0,0,1-7.06,1.38A17,17,0,0,1,271.79,27.8Z"/><path class="cls-1" d="M310.89,18.88V29.12h-8.08V18.76L291.92.57h8.53l6.77,11.34L314,.57h7.83Z"/></g></g></svg>