<svg xmlns="http://www.w3.org/2000/svg" display="none">
    <symbol id="service1" viewBox="0 0 49 49">
        <g>
            <g>
                <path d="M34.65,9.57a1,1,0,1,0,0,1.91,1,1,0,0,0,0-1.91Z"/>
                <path class="cls-1"
                      d="M48.39,9.63,23.51.06a1,1,0,0,0-1,.22,1,1,0,0,0-.21,1L24.7,7.39,20.76,9.7a1,1,0,0,0-.47.83,1,1,0,0,0,.47.82l3.94,2.32-2.43,6.07A1,1,0,0,0,23.51,21l24.88-9.57h0a1,1,0,0,0,0-1.79Zm-23-.45L26,10.53l-.54,1.34-2.28-1.34Zm1.36,4.44.86-2.14h3.18a1,1,0,1,0,0-1.91H27.64L24.86,2.64l18,6.93H38.47a1,1,0,0,0,0,1.91h4.42l-18,6.94Z"/>
                <path class="cls-1"
                      d="M10.53,46.13v-1a1,1,0,0,0,1-1,3.86,3.86,0,0,1,1.24-2.88A7.66,7.66,0,0,0,5.87,28.15,7.66,7.66,0,0,0,2.61,41.36a3.42,3.42,0,0,1,.9,1.27,4,4,0,0,1,.32,1.58,1,1,0,0,0,1,1v1a2.87,2.87,0,0,0,5.74,0ZM3.87,39.92a5.75,5.75,0,1,1,7.59,0,5.67,5.67,0,0,0-1.81,3.36h-1V38.87l1.63-1.63a1,1,0,0,0,0-1.36,1,1,0,0,0-1.35,0L7.66,37.12,6.42,35.88a1,1,0,0,0-1.35,1.36L6.7,38.87v4.39h-1a6.26,6.26,0,0,0-.39-1.38,5.36,5.36,0,0,0-1.41-2Zm3.79,7.17a1,1,0,0,1-1-1v-1H8.62v1a1,1,0,0,1-1,1Z"/>
                <path class="cls-1"
                      d="M35.6,23.54H11.49a6,6,0,0,1,0-12.06h5.93a1,1,0,1,0,0-1.91H11.49a8,8,0,0,0,0,15.89H35.6a6,6,0,0,1,5.75,6,6.21,6.21,0,0,1-1.71,4.22,5.54,5.54,0,0,1-4,1.81H18.19a1,1,0,1,0,0,1.91H35.6A7.43,7.43,0,0,0,41,37a8.14,8.14,0,0,0,2.22-5.53,7.91,7.91,0,0,0-7.66-7.95Z"/>
            </g>
        </g>
    </symbol>

    <symbol id="service2" viewBox="0 0 48 46.11">
        <g>
            <g>
                <path class="cls-1"
                      d="M45.4,0H2.6A2.61,2.61,0,0,0,0,2.6V32.9a2.61,2.61,0,0,0,2.6,2.6H6.75a.71.71,0,0,0,0-1.41H2.6A1.19,1.19,0,0,1,1.41,32.9V2.6A1.19,1.19,0,0,1,2.6,1.41H45.4A1.19,1.19,0,0,1,46.59,2.6V32.9a1.19,1.19,0,0,1-1.19,1.19H10a.71.71,0,0,0,0,1.41h7.54a10.36,10.36,0,0,1-3,6.17H12.26A1.27,1.27,0,0,0,11,42.94v1.89a1.27,1.27,0,0,0,1.27,1.28H29.75a.71.71,0,0,0,0-1.41H12.39V43.08H35.61V44.7H33a.71.71,0,1,0,0,1.41h2.71A1.27,1.27,0,0,0,37,44.83V42.94a1.27,1.27,0,0,0-1.27-1.27H33.38a10.49,10.49,0,0,1-3-6.17h15A2.61,2.61,0,0,0,48,32.9V2.6A2.61,2.61,0,0,0,45.4,0ZM31.49,41.67h-15A11.87,11.87,0,0,0,19,35.5H29a11.84,11.84,0,0,0,2.48,6.17Z"/>
                <path class="cls-1"
                      d="M39.59,29.63h4.68a.71.71,0,0,0,.7-.71V3.73a.71.71,0,0,0-.7-.7H3.73a.71.71,0,0,0-.7.7V28.92a.71.71,0,0,0,.7.71H36.31a.71.71,0,0,0,0-1.41H4.44V4.44H43.56V28.22h-4a.71.71,0,0,0,0,1.41Z"/>
                <path class="cls-1"
                      d="M11.82,7.62a.7.7,0,0,0-.7-.71H6.76a.71.71,0,0,0-.7.71V11.4a.71.71,0,0,0,.7.71h4.36a.7.7,0,0,0,.7-.71Zm-1.4,3.08H7.47V8.32h3Z"/>
                <path class="cls-1" d="M14.91,12.11H26.65a.71.71,0,0,0,0-1.41H14.91a.71.71,0,0,0,0,1.41Z"/>
                <path class="cls-1"
                      d="M30.06,6.91H20.4a.7.7,0,0,0-.7.71.7.7,0,0,0,.7.7h9.66a.7.7,0,0,0,.7-.7.7.7,0,0,0-.7-.71Z"/>
                <path class="cls-1"
                      d="M14.91,8.32h2.18a.7.7,0,0,0,.7-.7.7.7,0,0,0-.7-.71H14.91a.7.7,0,0,0-.7.71.7.7,0,0,0,.7.7Z"/>
                <path class="cls-1"
                      d="M11.82,14.44a.7.7,0,0,0-.7-.71H6.76a.71.71,0,0,0-.7.71v3.78a.71.71,0,0,0,.7.71h4.36a.7.7,0,0,0,.7-.71Zm-1.4,3.08H7.47V15.14h3Z"/>
                <path class="cls-1"
                      d="M14.91,18.93H26.65a.7.7,0,0,0,.7-.71.7.7,0,0,0-.7-.7H14.91a.7.7,0,0,0-.7.7.7.7,0,0,0,.7.71Z"/>
                <path class="cls-1" d="M30.06,13.73H20.4a.71.71,0,0,0,0,1.41h9.66a.71.71,0,0,0,0-1.41Z"/>
                <path class="cls-1" d="M14.91,15.14h2.18a.71.71,0,0,0,0-1.41H14.91a.71.71,0,0,0,0,1.41Z"/>
                <path class="cls-1"
                      d="M11.12,20.55H6.76a.71.71,0,0,0-.7.7V25a.71.71,0,0,0,.7.71h4.36a.7.7,0,0,0,.7-.71V21.25a.7.7,0,0,0-.7-.7Zm-.7,3.79H7.47V22h3Z"/>
                <path class="cls-1"
                      d="M14.91,25.75H26.65a.7.7,0,0,0,.7-.71.7.7,0,0,0-.7-.7H14.91a.7.7,0,0,0-.7.7.7.7,0,0,0,.7.71Z"/>
                <path class="cls-1" d="M30.76,21.25a.7.7,0,0,0-.7-.7H20.4a.71.71,0,0,0,0,1.41h9.66a.7.7,0,0,0,.7-.71Z"/>
                <path class="cls-1" d="M14.91,22h2.18a.71.71,0,0,0,0-1.41H14.91a.71.71,0,0,0,0,1.41Z"/>
                <path class="cls-1"
                      d="M41.94,19.31a.71.71,0,0,0-.5-.64l-8.15-2.45a.73.73,0,0,0-.7.18.69.69,0,0,0-.17.7l2.44,8.14a.69.69,0,0,0,.64.5h0a.71.71,0,0,0,.65-.45l1.51-3.79L41.5,20a.71.71,0,0,0,.44-.68Zm-5,1a.68.68,0,0,0-.39.39l-.88,2.2-1.49-5,5,1.49Z"/>
            </g>
        </g>
    </symbol>

    <symbol id="service3" viewBox="0 0 50.17 46.06">
        <g>
            <g>
                <path class="cls-1" d="M4.61,3.57h0a.74.74,0,0,0,0,1.48h0a.74.74,0,1,0,0-1.48Z"/>
                <path class="cls-1" d="M7.72,3.57h0a.74.74,0,1,0,0,1.48h0a.74.74,0,1,0,0-1.48Z"/>
                <path class="cls-1" d="M10.83,3.59h0a.74.74,0,1,0,0,1.48h0a.74.74,0,0,0,0-1.48Z"/>
                <path class="cls-1"
                      d="M47.32,0H2.85A2.86,2.86,0,0,0,0,2.85V36.8a2.86,2.86,0,0,0,2.85,2.85H17.47a.74.74,0,1,0,0-1.48H2.85A1.38,1.38,0,0,1,1.48,36.8V8.19H12.24a15.64,15.64,0,0,0-2.89,5.18H5.69a1.85,1.85,0,0,0-1.85,1.85v5.83A1.85,1.85,0,0,0,5.69,22.9H9.23a16,16,0,0,0,2.55,5,15.56,15.56,0,0,0,5.67,4.64,15.83,15.83,0,0,0,6.9,1.59,15.65,15.65,0,0,0,7.68-2l2.69,3.54a3,3,0,0,0-.22,2.53H21a.74.74,0,1,0,0,1.48H35.47l4,5.24a3,3,0,0,0,4.15.57l2.33-1.77a3,3,0,0,0,.64-4h.74a2.85,2.85,0,0,0,2.85-2.85V2.85A2.85,2.85,0,0,0,47.32,0ZM1.48,2.85A1.38,1.38,0,0,1,2.85,1.48H47.32a1.37,1.37,0,0,1,1.37,1.37V6.71H35a15.45,15.45,0,0,0-3.8-2.58A15.75,15.75,0,0,0,14.79,5.76c-.4.3-.77.62-1.13,1H1.48Zm38.26,12h4.74a.38.38,0,0,1,.37.37v5.83a.38.38,0,0,1-.37.37H39.81c.07-.32.12-.65.17-1a15.91,15.91,0,0,0-.24-5.6ZM26.4,12.52h11a13.91,13.91,0,0,1,.65,1.73.5.5,0,0,0,0,.13,14.29,14.29,0,0,1,.42,5.87,14.93,14.93,0,0,1-1.09,3.87H11.26a14.14,14.14,0,0,1-.74-2.1.38.38,0,0,0,0-.1,14.45,14.45,0,0,1-.32-5.53,15.39,15.39,0,0,1,.43-2,.19.19,0,0,0,0-.07,15.39,15.39,0,0,1,.64-1.76h11.6a.74.74,0,1,0,0-1.48H12a14.44,14.44,0,0,1,2.42-3l0,0c.38-.35.78-.7,1.2-1A14.34,14.34,0,0,1,34.2,8l0,0a15,15,0,0,1,1.49,1.68A13.76,13.76,0,0,1,36.65,11H26.4a.74.74,0,1,0,0,1.48ZM5.69,21.42a.38.38,0,0,1-.37-.37V15.22a.38.38,0,0,1,.37-.37H9c-.1.44-.19.89-.25,1.34a15.79,15.79,0,0,0,.16,5.23ZM13,27A13.76,13.76,0,0,1,12,25.6H36.65a14.2,14.2,0,0,1-2,2.67l0,.05A14.78,14.78,0,0,1,33,29.7c-.37.28-.76.54-1.15.78l-.05,0A14.32,14.32,0,0,1,13,27Zm20.93,3.91c.4-.3.78-.62,1.14-.95l2.5,3.29-1.77,1.35-2.47-3.26.6-.43ZM45.61,41.53a1.45,1.45,0,0,1-.57,1l-2.33,1.77A1.48,1.48,0,0,1,40.64,44l-4.21-5.53,0,0-.3-.4A1.48,1.48,0,0,1,36.38,36l2.33-1.77a1.45,1.45,0,0,1,.89-.3,1.46,1.46,0,0,1,1.18.58l4.54,6a1.47,1.47,0,0,1,.29,1.09Zm1.71-3.36H45.46L42,33.57a3,3,0,0,0-2.36-1.16,2.71,2.71,0,0,0-.75.1l-2.77-3.64a15.65,15.65,0,0,0,3.36-6h5a1.85,1.85,0,0,0,1.85-1.85V15.22a1.85,1.85,0,0,0-1.85-1.85H39.33a15.77,15.77,0,0,0-2.43-4.6c-.15-.2-.31-.39-.47-.58H48.69V36.8a1.37,1.37,0,0,1-1.37,1.37Z"/>
                <path class="cls-1"
                      d="M18.88,15.69a.72.72,0,0,0-.73.56l-.8,2.58-.78-2.45c-.15-.47-.42-.7-.79-.7s-.6.23-.75.7l-.79,2.45-.8-2.58a.73.73,0,0,0-.74-.56.69.69,0,0,0-.53.22.76.76,0,0,0-.2.53,1.06,1.06,0,0,0,0,.31l1.34,3.56c.19.51.49.76.9.76s.65-.23.81-.69l.73-2.15.73,2.15c.16.46.43.69.8.69s.72-.25.91-.76l1.33-3.56a1,1,0,0,0,.06-.31.72.72,0,0,0-.22-.54.72.72,0,0,0-.53-.21Z"/>
                <path class="cls-1"
                      d="M24.12,15.68c-.35,0-.6.23-.75.7l-.78,2.45-.8-2.58a.73.73,0,0,0-.74-.56.69.69,0,0,0-.53.22.72.72,0,0,0-.21.53.81.81,0,0,0,.06.31l1.33,3.56c.2.51.5.76.91.76s.65-.23.8-.69l.73-2.15.73,2.15q.24.69.81.69c.41,0,.71-.25.9-.76l1.33-3.56a1,1,0,0,0,.06-.31.72.72,0,0,0-.75-.75.72.72,0,0,0-.73.56l-.79,2.58-.78-2.45c-.16-.47-.42-.7-.8-.7Z"/>
                <path class="cls-1"
                      d="M30.15,20.21c.19.51.49.76.9.76s.65-.23.81-.69l.73-2.15.72,2.15q.25.69.81.69c.42,0,.72-.25.91-.76l1.33-3.56a1,1,0,0,0,.06-.31.76.76,0,0,0-.22-.54.72.72,0,0,0-.53-.21.71.71,0,0,0-.73.56l-.8,2.58-.78-2.45c-.15-.47-.42-.7-.79-.7s-.6.23-.75.7L31,18.73l-.8-2.58a.73.73,0,0,0-.74-.56.69.69,0,0,0-.53.22.72.72,0,0,0-.2.53.81.81,0,0,0,0,.31Z"/>
            </g>
        </g>
    </symbol>

    <symbol id="service4" viewBox="0 0 50.31 44.76">
        <g>
            <g>
                <path class="cls-1"
                      d="M40.5,9.08a1.18,1.18,0,0,0,1.18,0l3.19-1.85a1.18,1.18,0,0,0,0-2L41.68,3.35a1.18,1.18,0,0,0-1.77,1V8.05a1.21,1.21,0,0,0,.59,1Zm.88-4.2L43.7,6.21,41.38,7.55Z"/>
                <path class="cls-1"
                      d="M47.53,14.76H37.3a2,2,0,0,0-2,2V27a2,2,0,0,0,2,2H47.53a2,2,0,0,0,2-2V16.72a2,2,0,0,0-2-2ZM48,27a.49.49,0,0,1-.49.49H37.3a.49.49,0,0,1-.49-.49V16.72a.49.49,0,0,1,.49-.49H47.53a.49.49,0,0,1,.49.49Z"/>
                <path class="cls-1"
                      d="M42.42,19.65A3.32,3.32,0,1,0,45.73,23a3.32,3.32,0,0,0-3.31-3.31Zm0,5.15A1.84,1.84,0,1,1,44.26,23a1.84,1.84,0,0,1-1.84,1.84Z"/>
                <path class="cls-1"
                      d="M45.91,17.37a.74.74,0,0,0-.74.74v.64a.74.74,0,0,0,1.48,0v-.64a.74.74,0,0,0-.74-.74Z"/>
                <path class="cls-1"
                      d="M41.54,39a.15.15,0,0,1-.21,0l-.41-.4a.74.74,0,0,0-1,1l.41.4a1.62,1.62,0,0,0,2.3,0l2.1-2.1a1.62,1.62,0,0,0,0-2.3l-.4-.41a.74.74,0,1,0-1,1l.4.4a.16.16,0,0,1,0,.22Z"/>
                <path class="cls-1"
                      d="M25.58,9.16a.74.74,0,0,0-.74.73v.39l-4.28,1.78a.74.74,0,0,0-1.47,0v.57l-3.31,1.38H7.48a2.17,2.17,0,0,0-2.17,2.16v.2H4.45v-.05a.74.74,0,0,0-1.48,0v.11a3.64,3.64,0,0,0,0,7.16v.11a.74.74,0,1,0,1.47,0v0h.87v.2a2.19,2.19,0,0,0,2.17,2.17h.2v2.37a.74.74,0,0,0,1.47,0V26.06h3.58v2.32a.08.08,0,0,1-.05.08l-1.07.5a1.6,1.6,0,0,0-.9,1.42v3.2a.55.55,0,0,1-.55.55H9.71a.56.56,0,0,1-.56-.55V31.7A.74.74,0,0,0,8.41,31h0a.73.73,0,0,0-.73.73v1.88a2,2,0,0,0,2,2h.45a2,2,0,0,0,2-2v-3.2a.08.08,0,0,1,.05-.08l1.07-.5a1.58,1.58,0,0,0,.9-1.42V26.06h1.57l3.31,1.37V28a.74.74,0,0,0,1.47,0l4.28,1.79v.38a.74.74,0,1,0,1.47,0v-.87h0V9.89a.74.74,0,0,0-.74-.73ZM9.43,15.52h3v1.05a.54.54,0,0,1-.54.54H10a.55.55,0,0,1-.55-.54Zm-8,4.53A2.17,2.17,0,0,1,3,18v4.12a2.17,2.17,0,0,1-1.5-2.06Zm3,2.17V17.88h.87v4.34ZM7,24.38a.7.7,0,0,1-.2-.49V16.21a.68.68,0,0,1,.69-.69H8v1.05a2,2,0,0,0,2,2h1.93a2,2,0,0,0,2-2V15.52h1.27v9.06H7.48a.7.7,0,0,1-.49-.2Zm9.67.45V15.27l2.43-1V25.84Zm3.9,1.62V13.65l4.28-1.78V28.23Z"/>
                <path class="cls-1" d="M32.24,19.31h-3a.74.74,0,0,0,0,1.48h3a.74.74,0,0,0,0-1.48Z"/>
                <path class="cls-1"
                      d="M28.92,13.83,31,11.74a.75.75,0,0,0,0-1,.73.73,0,0,0-1,0l-2.1,2.09a.74.74,0,0,0,1.05,1Z"/>
                <path class="cls-1" d="M28.86,26.25a.74.74,0,0,0-1,1l2.09,2.09a.74.74,0,0,0,1-1Z"/>
                <path class="cls-1"
                      d="M42.42,30.68a7,7,0,0,0-6.31,10.18l-.71,2.66a.73.73,0,0,0,.9.9l2.49-.66a7.06,7.06,0,0,0,8-.5.73.73,0,0,0,.13-1,.75.75,0,0,0-1-.13,5.48,5.48,0,0,1-3.43,1.19,5.59,5.59,0,0,1-3.1-.94.72.72,0,0,0-.6-.1l-1.57.42L37.61,41a.76.76,0,0,0-.07-.55A5.57,5.57,0,1,1,48,37.72a5.53,5.53,0,0,1-.51,2.33.73.73,0,0,0,.36,1,.74.74,0,0,0,1-.36,7,7,0,0,0-6.4-10Z"/>
                <path class="cls-1"
                      d="M48.13,0H41.31a.74.74,0,0,0,0,1.47h6.82a.71.71,0,0,1,.71.72v8.05a.71.71,0,0,1-.71.71H36.71a.71.71,0,0,1-.72-.71v-8a.72.72,0,0,1,.72-.72h1.66a.74.74,0,1,0,0-1.47H36.71a2.19,2.19,0,0,0-2.19,2.19v8.05a2.19,2.19,0,0,0,2.19,2.18H48.13a2.19,2.19,0,0,0,2.18-2.18v-8A2.19,2.19,0,0,0,48.13,0Z"/>
            </g>
        </g>
    </symbol>

    <symbol id="service5" viewBox="0 0 50.15 36.79">
        <g>
            <g>
                <path class="cls-1"
                      d="M49.32,15.06H37.61a.83.83,0,0,0-.83.84v2.5H34.72l-1.94-2.9a15.57,15.57,0,0,0-2.9-3.27A16.34,16.34,0,0,0,28,10.84l5.36-5.36A3.2,3.2,0,0,0,28.84.92l0,0L27,2.77h0l-2.5,2.5h0L21.24,8.52A1.29,1.29,0,0,0,21,8.44c-.51,0-1-.07-1.52-.07H10a.83.83,0,0,0-.59.25L1.77,16.28a3.2,3.2,0,0,0,4.5,4.56l0,0L7.12,20l.24.8c.13.41.27.8.43,1.19L4.43,25.33h0L2.75,27a.83.83,0,0,0-.2.32l-1.67,5a.84.84,0,0,0,.53,1.06,1.09,1.09,0,0,0,.26,0,1.26,1.26,0,0,0,.27,0l5-1.68a.86.86,0,0,0,.33-.2L9,29.86H9L11.81,27a11.77,11.77,0,0,0,7,2.27h7.14l.11,0a7.61,7.61,0,0,0,5.71,2.53h5.05v.83a.83.83,0,0,0,.83.84H49.32a.83.83,0,0,0,.83-.84V15.9A.83.83,0,0,0,49.32,15.06ZM30,2.13a1.53,1.53,0,0,1,2.16,0,1.49,1.49,0,0,1,.45,1.07,1.54,1.54,0,0,1-.45,1.09L30.93,5.52,28.77,3.36ZM27.58,4.54,29.75,6.7,28.42,8,26.26,5.87ZM5.12,19.63a1.53,1.53,0,0,1-2.61-1.08A1.53,1.53,0,0,1,3,17.47L10.38,10h9.08l.24,0-3.33,3.33H11.7a.87.87,0,0,0-.59.24Zm9.58-4.57-5.6,5.6c0-.12-.1-.24-.13-.36l-.5-1.66,3.58-3.58ZM6.24,30.21,3,31.29l1.08-3.24L5.33,26.8A2.48,2.48,0,0,1,7.49,29Zm2.6-2.61a4.22,4.22,0,0,0-2.16-2.16L17.31,14.82h0l7.77-7.77,2.16,2.16-8.36,8.36H17.76a3.33,3.33,0,0,0-3.34,3.31,3.26,3.26,0,0,0,.16,1,.57.57,0,0,0-.13.08Zm9.93,0A10.19,10.19,0,0,1,13,25.81l2.46-2.47a3.36,3.36,0,0,0,2.29.91h5.16l1.91,3.35Zm18,2.51H31.73A6.12,6.12,0,0,1,26.43,27l-2.3-4a.84.84,0,0,0-.73-.42H17.76a1.67,1.67,0,1,1,0-3.34h8.15a.84.84,0,1,0,0-1.67H21.24l5.51-5.51a13.67,13.67,0,0,1,4.64,4.37l2.19,3.27a.81.81,0,0,0,.69.38h2.51Zm11.7,1.67h-10v-15h10Z"/>
                <circle class="cls-1" cx="43.47" cy="28.43" r="1.67"/>
                <path class="cls-1"
                      d="M18.39,35.12H.84A.84.84,0,0,0,0,36a.83.83,0,0,0,.84.83H18.39a.84.84,0,0,0,.84-.83A.85.85,0,0,0,18.39,35.12Z"/>
                <path class="cls-1"
                      d="M22.57,36.79A.83.83,0,0,0,23.4,36a.84.84,0,0,0-.83-.84h-.84a.84.84,0,0,0-.83.84.83.83,0,0,0,.83.83Z"/>
            </g>
        </g>
    </symbol>

    <symbol id="service6" viewBox="0 0 45.99 49">
        <g>
            <g>
                <path class="cls-1"
                      d="M40.61,0H38.5a.72.72,0,0,0,0,1.44h2.11a3.94,3.94,0,0,1,3.94,3.93V22a3.94,3.94,0,0,1-3.94,3.93H38.22a.71.71,0,0,0-.44.15L33.4,29.41V26.63a.72.72,0,0,0-.72-.72H23.94a3.94,3.94,0,0,1-2-.55v-8A4.41,4.41,0,0,0,20,13.67V5.37a3.94,3.94,0,0,1,3.94-3.93H34A.72.72,0,0,0,34,0H23.94a5.38,5.38,0,0,0-5.38,5.37V13a4.31,4.31,0,0,0-1-.12H4.4A4.4,4.4,0,0,0,0,17.31v1.55a.72.72,0,0,0,1.44,0V17.31a3,3,0,0,1,3-2.95H17.54a3,3,0,0,1,3,2.95v8.34a.61.61,0,0,0,0,.19v4.57a2.45,2.45,0,0,1,0,.27H19a3.32,3.32,0,0,0-3.27,2.72.72.72,0,0,0-.19.11L12.33,36V34.07a.71.71,0,0,0-.72-.71H4.4a3,3,0,0,1-3-2.95V23.16a.72.72,0,0,0-1.44,0v7.25a4.39,4.39,0,0,0,4.4,4.38h6.5v2.66a.72.72,0,0,0,1.15.56l3.63-2.79v8.07A3.32,3.32,0,0,0,19,46.61h4.41v1.68a.73.73,0,0,0,1.15.57l2.91-2.25h.86a3.33,3.33,0,0,0,3.33-3.32V42a.72.72,0,0,0-1.44,0v1.27a1.89,1.89,0,0,1-1.89,1.89h-1.1a.69.69,0,0,0-.44.15l-1.95,1.5V45.9a.71.71,0,0,0-.71-.72H19a1.89,1.89,0,0,1-1.89-1.89V34A1.89,1.89,0,0,1,19,32.11h9.33A1.89,1.89,0,0,1,30.22,34v3.52a.72.72,0,0,0,1.44,0V34a3.33,3.33,0,0,0-3.33-3.32H21.92c0-.09,0-3.72,0-3.72a5.29,5.29,0,0,0,2,.39h8v3.52a.73.73,0,0,0,1.16.57l5.34-4.09h2.15A5.39,5.39,0,0,0,46,22V5.37A5.39,5.39,0,0,0,40.61,0Z"/>
                <path class="cls-1"
                      d="M34.07,5.3a1.5,1.5,0,0,0-1.84,1.43,4.22,4.22,0,0,1-1.06,2.79l-2,2.24a.72.72,0,0,0-.6-.32H24.73a.72.72,0,0,0-.72.71v8.69a.72.72,0,0,0,.72.72h3.86a.73.73,0,0,0,.66-.42,5,5,0,0,0,2.61.74h6.82a1.88,1.88,0,0,0,1.85-1.95c0-.46,0-6.64,0-6.78a1.86,1.86,0,0,0-1.85-1.86H35.13l.15-.35A5.59,5.59,0,0,0,35,6a1.46,1.46,0,0,0-.91-.7ZM27.88,20.12H25.45V12.87h2.43Zm10.8-7.39a.42.42,0,0,1,.42.42v1c0,2.77,0,5.4,0,5.84a.39.39,0,0,1-.12.31.42.42,0,0,1-.3.13H31.86a3.61,3.61,0,0,1-2.25-.79l-.3-.25V13.8l2.94-3.32a5.69,5.69,0,0,0,1.41-3.75s.06-.05.08,0A4.23,4.23,0,0,1,34,10.38l-.57,1.34a.71.71,0,0,0,.66,1Z"/>
                <path class="cls-1"
                      d="M6.15,24.93a.72.72,0,1,0,0,1.44H8.26l-.39,2.39a.72.72,0,0,0,.59.83h.12a.71.71,0,0,0,.7-.6l.44-2.63h1.73l-.4,2.39a.73.73,0,0,0,.6.83h.11a.72.72,0,0,0,.71-.6l.43-2.63h2.89a.72.72,0,0,0,0-1.44H13.14l.29-1.75h2.36a.72.72,0,0,0,0-1.43H13.67l.39-2.39a.72.72,0,0,0-.59-.83.71.71,0,0,0-.82.59l-.44,2.63H10.48l.4-2.39a.72.72,0,0,0-1.42-.24L9,21.75H6.15a.72.72,0,1,0,0,1.43H8.79L8.5,24.93Zm4.1-1.75H12l-.29,1.75H10Z"/>
                <path class="cls-1"
                      d="M23.66,35.82a2.41,2.41,0,0,0-2.13-.48,2.67,2.67,0,0,0-2,2.69,3.54,3.54,0,0,0,1.06,2.53,10.54,10.54,0,0,0,2.73,1.88.77.77,0,0,0,.34.08.76.76,0,0,0,.33-.08C26.28,41.23,27.79,40,27.79,38a2.66,2.66,0,0,0-2.06-2.68,2.39,2.39,0,0,0-2.07.47ZM26.35,38c0,1.08-.71,1.87-2.68,3-2-1.09-2.69-1.88-2.69-3a1.24,1.24,0,0,1,.89-1.3l.25,0a1,1,0,0,1,.91.58.69.69,0,0,0,.65.39.73.73,0,0,0,.64-.41.92.92,0,0,1,1.1-.5A1.2,1.2,0,0,1,26.35,38Z"/>
            </g>
        </g>
    </symbol>

    <symbol id="service7" viewBox="0 0 52.15 39.83">
        <g>
            <g>
                <path class="cls-1"
                      d="M51.39,28.92a.76.76,0,0,0,.76-.77V1.78A1.78,1.78,0,0,0,50.37,0h-31a.76.76,0,0,0-.76.76.76.76,0,0,0,.76.77h31a.26.26,0,0,1,.26.25V6.42H1.53V1.78a.25.25,0,0,1,.25-.25H15.83a.76.76,0,0,0,.76-.77A.76.76,0,0,0,15.83,0h-14A1.78,1.78,0,0,0,0,1.78V38a1.79,1.79,0,0,0,1.78,1.79H50.37A1.79,1.79,0,0,0,52.15,38V31.67a.76.76,0,1,0-1.52,0V38a.26.26,0,0,1-.26.26H1.78A.26.26,0,0,1,1.53,38V8h49.1v20.2a.76.76,0,0,0,.76.77Z"/>
                <path class="cls-1" d="M4.83,3.21a.77.77,0,0,0,0,1.53h0a.77.77,0,1,0,0-1.53Z"/>
                <path class="cls-1" d="M7.14,3.21a.77.77,0,1,0,0,1.53h0a.77.77,0,0,0,0-1.53Z"/>
                <path class="cls-1" d="M9.44,3.21a.77.77,0,0,0,0,1.53h0a.77.77,0,0,0,0-1.53Z"/>
                <path class="cls-1" d="M47.32,4.74a.77.77,0,1,0,0-1.53H45.9a.77.77,0,0,0,0,1.53Z"/>
                <path class="cls-1"
                      d="M43.08,24.51V22.75a2.21,2.21,0,0,0-2.21-2.21H11.28a2.21,2.21,0,0,0-2.2,2.21v1.76a2.21,2.21,0,0,0,2.2,2.21H23.77a.77.77,0,1,0,0-1.53H11.28a.68.68,0,0,1-.68-.68V22.75a.68.68,0,0,1,.68-.68H36.62v3.12H27.29a.77.77,0,0,0,0,1.53H40.87a2.21,2.21,0,0,0,2.21-2.21Zm-4.93-2.44h2.72a.68.68,0,0,1,.68.68v1.76a.68.68,0,0,1-.68.68H38.15Z"/>
                <path class="cls-1"
                      d="M22.9,32.29a2.21,2.21,0,1,0,0-4.42H17.13a2.21,2.21,0,1,0,0,4.42Zm-6.45-2.21a.68.68,0,0,1,.68-.68H22.9a.68.68,0,0,1,0,1.36H17.13a.69.69,0,0,1-.68-.68Z"/>
                <path class="cls-1"
                      d="M29.26,27.87a2.21,2.21,0,1,0,0,4.42H35a2.21,2.21,0,0,0,0-4.42Zm6.44,2.21a.69.69,0,0,1-.68.68H29.25a.68.68,0,0,1,0-1.36H35a.68.68,0,0,1,.68.68Z"/>
                <path class="cls-1"
                      d="M19.08,12.94a2,2,0,0,1,.64.1.77.77,0,0,0,1-.51.75.75,0,0,0-.5-.95,3.77,3.77,0,0,0-1.1-.17,3.7,3.7,0,1,0,3.69,3.69.76.76,0,0,0-.76-.76H19.08a.77.77,0,0,0,0,1.53h2a2.17,2.17,0,1,1-2-2.93Z"/>
                <path class="cls-1"
                      d="M23,17A1.94,1.94,0,1,0,24.9,15,1.94,1.94,0,0,0,23,17Zm2.35,0a.41.41,0,0,1-.82,0,.41.41,0,1,1,.82,0Z"/>
                <path class="cls-1"
                      d="M27.15,17A1.94,1.94,0,1,0,29.09,15,1.94,1.94,0,0,0,27.15,17Zm2.35,0a.41.41,0,0,1-.82,0,.41.41,0,1,1,.82,0Z"/>
                <path class="cls-1"
                      d="M33.28,15A1.94,1.94,0,1,0,35.22,17,1.94,1.94,0,0,0,33.28,15Zm0,2.35a.41.41,0,0,1-.41-.41.41.41,0,1,1,.82,0,.41.41,0,0,1-.41.41Z"/>
                <path class="cls-1"
                      d="M22.46,13a.76.76,0,0,0,.76.77H33a.77.77,0,0,0,.76.82.76.76,0,0,0,.54-.23l.82-.82a.73.73,0,0,0,.23-.54.76.76,0,0,0-.23-.54l-.82-.82a.78.78,0,0,0-1.08,0,.82.82,0,0,0-.22.6H23.22a.76.76,0,0,0-.76.76Z"/>
                <path class="cls-1" d="M4.74,35.14a.77.77,0,0,0,0,1.53H6.53a.77.77,0,0,0,0-1.53Z"/>
                <path class="cls-1" d="M9.36,35.14a.77.77,0,0,0,0,1.53h1.79a.77.77,0,1,0,0-1.53Z"/>
                <path class="cls-1" d="M14,35.14a.77.77,0,1,0,0,1.53h1.79a.77.77,0,0,0,0-1.53Z"/>
                <path class="cls-1" d="M45.62,35.14a.77.77,0,0,0,0,1.53h1.79a.77.77,0,1,0,0-1.53Z"/>
            </g>
        </g>
    </symbol>

    <symbol id="service8" viewBox="0 0 42.98 42.98">
        <g>
            <g>
                <path class="cls-1"
                      d="M14.35,33.35a.75.75,0,0,0,.06-.68l-1.57-3.59a.73.73,0,0,0-.66-.43.72.72,0,0,0-.66.43L10,32.67a.75.75,0,0,0,.06.68.72.72,0,0,0,.6.32h3.14a.72.72,0,0,0,.6-.32ZM11.7,32.24l.48-1.09.47,1.09Z"/>
                <path class="cls-1"
                      d="M12.18,36.54h2.35l.69,1.57a2.15,2.15,0,0,0,4-1.72l-5-11.46a2.15,2.15,0,0,0-3.94,0l-5,11.46a2.15,2.15,0,1,0,3.94,1.72l.87-2a.72.72,0,0,0-1.31-.58l-.88,2A.71.71,0,0,1,6.51,37l5-11.47a.73.73,0,0,1,.66-.43.72.72,0,0,1,.66.43l5,11.47a.71.71,0,0,1-.37.94.72.72,0,0,1-.94-.37l-.88-2A.71.71,0,0,0,15,35.1H12.18a.72.72,0,0,0,0,1.44Z"/>
                <path class="cls-1"
                      d="M21.49,35.1a.71.71,0,0,0-.71.72v1.43a2.15,2.15,0,0,0,2.15,2.15h4.29A6.45,6.45,0,0,0,33.67,33V30.09a6.46,6.46,0,0,0-6.45-6.45H22.93a2.15,2.15,0,0,0-2.15,2.15V33a.72.72,0,1,0,1.43,0V25.79a.72.72,0,0,1,.72-.72h4.29a5,5,0,0,1,5,5V33a5,5,0,0,1-5,5H22.93a.72.72,0,0,1-.72-.72V35.82a.72.72,0,0,0-.72-.72Z"/>
                <path class="cls-1"
                      d="M27.22,36.54A3.61,3.61,0,0,0,30.81,33V30.09a3.59,3.59,0,0,0-3.59-3.58H24.36a.71.71,0,0,0-.72.71v8.6a.72.72,0,0,0,.72.72Zm-2.15-8.6h2.15a2.15,2.15,0,0,1,2.15,2.15V33a2.15,2.15,0,0,1-2.15,2.15H25.07Z"/>
                <path class="cls-1" d="M40.12,39.4a.72.72,0,1,1-.72-.71.72.72,0,0,1,.72.71Z"/>
                <path class="cls-1" d="M4.3,39.4a.72.72,0,1,1-.72-.71.72.72,0,0,1,.72.71Z"/>
                <path class="cls-1"
                      d="M42.27,34.39a.71.71,0,0,0-.72.71v6.45H1.43V20.78a.72.72,0,1,0-1.43,0V42.27A.71.71,0,0,0,.72,43H42.27a.71.71,0,0,0,.71-.71V35.1a.71.71,0,0,0-.71-.71Z"/>
                <path class="cls-1"
                      d="M42.27,20.06H39.4V18.63h1.44a.74.74,0,0,0,.64-.4.73.73,0,0,0-.07-.75l-2.15-2.87a.75.75,0,0,0-1.15,0L36,17.48a.7.7,0,0,0-.06.75.72.72,0,0,0,.64.4H38v1.43H15.76V10a.69.69,0,0,0-.31-.59.73.73,0,0,0-.66-.08L9.06,11.51a.7.7,0,0,0-.46.67v5H4.3V12.9H6.45a.72.72,0,0,0,0-1.44H3.58A3.58,3.58,0,0,0,3,18.57l1,4.19a2.11,2.11,0,0,0,4.09-1l-.07-.25H38v7.08a3,3,0,0,1-.86,2.09,4.34,4.34,0,0,0-1.29,3.1v4.93a.72.72,0,0,0,1.43,0V33.76a2.92,2.92,0,0,1,.87-2.09,4.35,4.35,0,0,0,1.28-3.1V21.49h2.15V32.24a.72.72,0,0,0,1.43,0V20.78a.71.71,0,0,0-.71-.72Zm-3.58-3.82.71,1H38ZM10,12.68l4.3-1.62v8L10,17.41ZM1.43,15a2.14,2.14,0,0,1,1.44-2v4.05a2.16,2.16,0,0,1-1.44-2Zm5.2,7.63a.69.69,0,0,1-.67.24.67.67,0,0,1-.51-.5l-1-3.78H5.89l.86,3.46a.64.64,0,0,1-.12.58Zm.74-4H9.18L13,20.06H7.72Z"/>
                <path class="cls-1"
                      d="M40.84,4.3a2.15,2.15,0,1,0-2.15-2.15A2.16,2.16,0,0,0,40.84,4.3Zm0-2.87a.72.72,0,0,1,.5,1.23.72.72,0,0,1-.78.15.71.71,0,0,1-.44-.66.72.72,0,0,1,.72-.72Z"/>
                <path class="cls-1"
                      d="M7.16,5A2.15,2.15,0,1,0,5,2.87,2.15,2.15,0,0,0,7.16,5Zm0-2.86a.72.72,0,0,1,.67.44.72.72,0,1,1-1.38.28.71.71,0,0,1,.71-.72Z"/>
                <path class="cls-1"
                      d="M13.9,5.59A.71.71,0,0,0,15,5V3.58h4.3a.72.72,0,0,1,.72.72V10a.72.72,0,0,1-.72.72H17.91a.72.72,0,1,0,0,1.43h1.43A2.15,2.15,0,0,0,21.49,10V4.3a2.15,2.15,0,0,0-2.15-2.15H15V.72a.71.71,0,0,0-.39-.64.7.7,0,0,0-.75.06L11,2.29a.73.73,0,0,0,0,1.15Zm-.29-3.44V3.58l-.95-.71Z"/>
                <path class="cls-1"
                      d="M40.21,10.66a.72.72,0,0,0-1,0l-.5.51-.51-.51a.7.7,0,0,0-.51-.22.69.69,0,0,0-.51.21.71.71,0,0,0-.21.51.69.69,0,0,0,.22.51l.5.51-.5.51a.68.68,0,0,0-.22.5.72.72,0,0,0,.21.52.74.74,0,0,0,.51.21.7.7,0,0,0,.51-.22l.51-.51.5.51a.72.72,0,0,0,.51.22.74.74,0,0,0,.51-.21.68.68,0,0,0,.21-.52.71.71,0,0,0-.21-.5l-.51-.51.51-.51a.73.73,0,0,0,0-1Z"/>
                <path class="cls-1"
                      d="M27.14,3.67a.71.71,0,0,0,1,0l.51-.51.5.51a.72.72,0,0,0,1-1l-.51-.51.51-.51a.72.72,0,0,0-1-1l-.5.51L28.15.63a.71.71,0,0,0-1,1l.5.51-.5.51a.71.71,0,0,0,0,1Z"/>
                <path class="cls-1"
                      d="M17.19,14.33a.72.72,0,0,0,.72.71h4.3a2.14,2.14,0,0,0,2.15-2.14v-5a.71.71,0,0,1,.71-.72h2.87a.72.72,0,0,1,.72.72V10h-.72a2.15,2.15,0,0,0-2.15,2.15v3.58a.72.72,0,0,1-.72.72H17.91a.72.72,0,1,0,0,1.43h7.16a2.15,2.15,0,0,0,2.15-2.15V12.18a.72.72,0,0,1,.72-.72h.72v2.15a2.15,2.15,0,0,0,2.15,2.15h.71v1.43a.71.71,0,0,0,.4.64.7.7,0,0,0,.75-.06l2.86-2.15a.72.72,0,0,0,0-1.15l-2.86-2.15a.73.73,0,0,0-.75-.07.74.74,0,0,0-.4.65v1.43h-.71a.72.72,0,0,1-.72-.72V11.46h1a3.5,3.5,0,0,0,2.53-1.05l2.6-2.59L37.46,9.1a.72.72,0,0,0,1.23-.5V5A.71.71,0,0,0,38,4.3H34.39a.71.71,0,0,0-.66.44.72.72,0,0,0,.15.78l1.29,1.29L32.57,9.4a2.16,2.16,0,0,1-1.52.63h-1V7.88a2.15,2.15,0,0,0-2.15-2.15H25.07a2.14,2.14,0,0,0-2.14,2.15v5a.72.72,0,0,1-.72.71h-4.3a.72.72,0,0,0-.72.72Zm15.76,0,1,.71-1,.72Zm4.3-8.6V6.87L36.12,5.73Z"/>
            </g>
        </g>
    </symbol>

    <symbol id="right" viewBox="0 0 512 512">
        <g>
            <g>
                <path d="M508.875,248.458l-160-160c-4.167-4.167-10.917-4.167-15.083,0c-4.167,4.167-4.167,10.917,0,15.083l141.792,141.792
			H10.667C4.771,245.333,0,250.104,0,256s4.771,10.667,10.667,10.667h464.917L333.792,408.458c-4.167,4.167-4.167,10.917,0,15.083
			c2.083,2.083,4.813,3.125,7.542,3.125c2.729,0,5.458-1.042,7.542-3.125l160-160C513.042,259.375,513.042,252.625,508.875,248.458z
			"/>
            </g>
        </g>
    </symbol>

    <symbol id="left" viewBox="0 0 512 512">
        <g>
            <g>
                <path d="M501.333,245.333H36.417l141.792-141.792c4.167-4.167,4.167-10.917,0-15.083c-4.167-4.167-10.917-4.167-15.083,0l-160,160
			c-4.167,4.167-4.167,10.917,0,15.083l160,160c2.083,2.083,4.813,3.125,7.542,3.125c2.729,0,5.458-1.042,7.542-3.125
			c4.167-4.167,4.167-10.917,0-15.083L36.417,266.667h464.917c5.896,0,10.667-4.771,10.667-10.667S507.229,245.333,501.333,245.333z
			"/>
            </g>
        </g>
    </symbol>


</svg>